<svg width="132" height="299" viewBox="0 0 132 299" fill="none" xmlns="http://www.w3.org/2000/svg">
<path d="M55 4H77C105.167 4 128 26.8335 128 55V178.23C128 195.351 114.121 209.23 97 209.23H35C17.8792 209.23 4 195.351 4 178.23V55L4.00391 54.3408C4.35403 26.6975 26.6975 4.35406 54.3408 4.00391L55 4Z" stroke="black" stroke-width="8"/>
<path d="M51.8164 210.115H80.9492L87.4482 277.885C88.2648 286.401 81.5694 293.77 73.0146 293.77H58.8438C50.3283 293.77 43.6463 286.466 44.4014 277.984L50.3223 211.483C50.3912 210.709 51.0396 210.116 51.8164 210.115Z" stroke="black" stroke-width="9"/>
<path d="M6.34619 48.2309C6.34619 36.7926 22.2116 7.61546 41.8847 7.61546C61.2156 8.85463 82.9615 -1.55767 102 10.5C118.62 21.0261 124.385 36.7926 124.385 48.2309V71.077C124.385 77.94 120.45 79.0838 112.581 74.5085C104.712 69.9332 99.8432 87.6555 95.827 98.3655C93.9231 103.442 87.577 105.346 84.4039 99.0001C79.8286 89.8495 74.8846 52.0386 56.4808 81.8655C50.5789 89.5577 40.1749 94.9412 33.1999 84.8029C25.3307 73.3647 25.6385 88.9641 17.7693 95.827C9.90004 102.69 6.34619 84.8029 6.34619 71.077V48.2309Z" fill="black"/>
</svg>
