<svg width="381" height="381" viewBox="0 0 381 381" fill="none" xmlns="http://www.w3.org/2000/svg">
<rect width="381" height="381" rx="20" fill="white"/>
<path d="M181 45H203C231.167 45 254 67.8335 254 96V219.23C254 236.351 240.121 250.23 223 250.23H161C143.879 250.23 130 236.351 130 219.23V96L130.004 95.3408C130.354 67.6975 152.697 45.3541 180.341 45.0039L181 45Z" stroke="black" stroke-width="8"/>
<path d="M177.816 251.115H206.949L213.448 318.885C214.265 327.401 207.569 334.77 199.014 334.77H184.844C176.328 334.77 169.646 327.466 170.401 318.984L176.322 252.483C176.391 251.709 177.039 251.116 177.816 251.115Z" stroke="black" stroke-width="9"/>
<path d="M132.346 89.2309C132.346 77.7926 148.212 48.6155 167.885 48.6155C187.216 49.8546 208.962 39.4423 228 51.5C244.62 62.0261 250.385 77.7926 250.385 89.2309V112.077C250.385 118.94 246.45 120.084 238.581 115.508C230.712 110.933 225.843 128.656 221.827 139.365C219.923 144.442 213.577 146.346 210.404 140C205.829 130.85 200.885 93.0386 182.481 122.865C176.579 130.558 166.175 135.941 159.2 125.803C151.331 114.365 151.638 129.964 143.769 136.827C135.9 143.69 132.346 125.803 132.346 112.077V89.2309Z" fill="black"/>
</svg>
